# xmcd CD database file
#
# Track frame offsets:
#	150
#	9847
#	20637
#	29010
#	40222
#	50675
#	63022
#	75247
#	88162
#	98742
#	111440
#	121325
#	132037
#	143962
#	157912
#	171289
#	184014
#	194874
#	206644
#	218224
#	228251
#	240836
#	251636
#	262631
#	274314
#	286614
#	298519
#	309114
#	322474
#	343579
#
# Disc length: 4724 seconds
#
# Revision: 0
# Processed by: cddbd v1.5.1PL0 Copyright (c) Steve Scherf et al.
# Submitted via: CDex 1.40Beta8
#
DISCID=aa12721e
DTITLE=Country Classics - Early 60's
DYEAR=1900
DGENRE=Country
TTITLE0=George Jones - The Race is On
TTITLE1=Hank Locklin - Please Help me I'm falling
TTITLE2=Roger Miller - Dang me
TTITLE3=Floyd Cramer - Last Date
TTITLE4=Ferlin Husky - The Wings of a Dove
TTITLE5=Patsy Cline - Crazy
TTITLE6=Brenda Lee - I'm Sorry
TTITLE7=Johnny Horton - North to alaska
TTITLE8=Jim reeves - He'll have to Go
TTITLE9=Bill Anderson - Still
TTITLE10=Ned Miller - From a Jack to a King
TTITLE11=Leroy Van Dyke - Walk on By
TTITLE12=Johnny Cash - Ring of Fire
TTITLE13=Lefty Frizzell - Saginaw Michigan
TTITLE14=Claude King - Wolverton Mountain
TTITLE15=Patsy Cline - I Fall to Pieces
TTITLE16=Faron Young - Hello Walls
TTITLE17=Jim Reeves - Welcome to My World
TTITLE18=Don Gibson - Sea of Heartbreak
TTITLE19=George Hamilton IV- Abeline
TTITLE20=Bobby Bare - Detroit City
TTITLE21=Dave Dudley - Six Days on the Road
TTITLE22=Buck Owens - My Heart Skips a Beat
TTITLE23=George Jones - She Still Thinks I Care
TTITLE24=Roy Drusky - Three Hearts in a Tangle
TTITLE25=Skeeter Davis - The End of the World
TTITLE26=Connie Smith - Once a Day
TTITLE27=Carl Butler - Don't Let me Cross Over
TTITLE28=Marty Robbins - El Paso
TTITLE29=Everly Brothers - Cathy's Clown
EXTD=ID3G: 2
EXTT0=
EXTT1=
EXTT2=
EXTT3=
EXTT4=
EXTT5=
EXTT6=
EXTT7=
EXTT8=
EXTT9=
EXTT10=
EXTT11=
EXTT12=
EXTT13=
EXTT14=
EXTT15=
EXTT16=
EXTT17=
EXTT18=
EXTT19=
EXTT20=
EXTT21=
EXTT22=
EXTT23=
EXTT24=
EXTT25=
EXTT26=
EXTT27=
EXTT28=
EXTT29=
PLAYORDER=
